<!DOCTYPE svg PUBLIC "-//W3C//DTD SVG 1.1//EN" "http://www.w3.org/Graphics/SVG/1.1/DTD/svg11.dtd">
<!-- Uploaded to: SVG Repo, www.svgrepo.com, Transformed by: SVG Repo Mixer Tools -->
<svg height="155px" width="155px" version="1.1" id="_x32_" xmlns="http://www.w3.org/2000/svg" xmlns:xlink="http://www.w3.org/1999/xlink" viewBox="0 0 512 512" xml:space="preserve" fill="#121111" stroke="#121111">
<g id="SVGRepo_bgCarrier" stroke-width="0"/>
<g id="SVGRepo_tracerCarrier" stroke-linecap="round" stroke-linejoin="round"/>
<g id="SVGRepo_iconCarrier"> <style type="text/css"> .st0{fill:#c82828;} </style> <g> <path class="st0" d="M389.253,0H122.746C95.718,0.007,73.831,21.898,73.819,48.927v414.146 c0.012,27.029,21.899,48.92,48.927,48.928h266.507c27.021-0.008,48.912-21.899,48.928-48.928V48.927 C438.165,21.898,416.274,0.007,389.253,0z M405.552,463.072c-0.016,4.548-1.8,8.523-4.78,11.527 c-2.994,2.972-6.978,4.764-11.519,4.772H122.746c-4.552-0.008-8.523-1.8-11.522-4.772c-2.976-3.004-4.768-6.978-4.776-11.527 V48.927c0.008-4.548,1.8-8.523,4.776-11.527c2.999-2.971,6.97-4.764,11.522-4.771h266.507c4.541,0.007,8.524,1.8,11.519,4.771 c2.98,3.004,4.764,6.978,4.78,11.527V463.072z"/> <polygon class="st0" points="198.973,251.782 256.002,331.171 313.014,251.782 256.002,172.4 "/> </g> </g>
</svg>